<svg xmlns="http://www.w3.org/2000/svg" width="232" height="27.133"><defs><style>.a{fill:#222}</style></defs><path class="a" d="M141.483 21.075a.321.321 0 11.214-.552l.008.009.015.017a.316.316 0 01-.236.526z"/><path class="a" d="M141.483 21.075a.321.321 0 11.214-.552l.008.009.015.017a.316.316 0 01-.236.526zm-4.967 4.989a.317.317 0 01-.261-.5.322.322 0 01.036-.044.316.316 0 01.542.221.3.3 0 01-.01.075.316.316 0 01-.307.248z"/><path class="a" d="M141.483 21.075a.321.321 0 11.214-.552l.008.009.015.017a.316.316 0 01-.236.526zm-4.967 4.989a.317.317 0 01-.261-.5.322.322 0 01.036-.044.316.316 0 01.542.221.3.3 0 01-.01.075.316.316 0 01-.307.248z"/><path class="a" d="M136.517 26.061a.317.317 0 01-.292-.194.32.32 0 01-.025-.123.317.317 0 01.057-.181.325.325 0 01.036-.044.316.316 0 01.542.221.3.3 0 01-.01.075.316.316 0 01-.308.246zm4.966-4.986a.319.319 0 01-.261-.136.316.316 0 01.474-.417l.008.009.015.017a.315.315 0 01.08.21.306.306 0 01-.024.121.316.316 0 01-.292.196z"/><path class="a" d="M136.515 26.059h-.007a.318.318 0 01-.228-.1l-.093-.1a31.207 31.207 0 01-2.686-3.291.313.313 0 01-.053-.13 26.5 26.5 0 010-8.6 26.072 26.072 0 011.438-5.227c.008-.024.018-.046.027-.068a26.128 26.128 0 012.1-4.183c.448-.726.939-1.44 1.461-2.123a.318.318 0 01.4-.089.313.313 0 01.155.375 20.558 20.558 0 00-.627 2.4c-.1.5-.18 1.014-.238 1.514a20.63 20.63 0 00-.145 2.436v.154a20.176 20.176 0 001.914 8.479c.019.043.036.08.054.116l.035.072c.048.1.1.2.146.3a.312.312 0 01-.023.321c-.192.273-.386.568-.578.876a19.906 19.906 0 00-1.029 1.834 21.17 21.17 0 00-1.707 4.8.333.333 0 01-.086.157.318.318 0 01-.23.077zm-2.455-3.8a30.858 30.858 0 002.287 2.837 21.8 21.8 0 011.62-4.363 20.447 20.447 0 011.059-1.888c.162-.26.327-.511.49-.75l-.068-.14-.035-.071a3.763 3.763 0 01-.06-.13 20.774 20.774 0 01-1.969-8.724v-.166a21.275 21.275 0 01.149-2.509c.06-.516.143-1.042.246-1.562q.071-.358.154-.714-.2.3-.381.6a25.542 25.542 0 00-2.052 4.094l-.006.014c0 .008-.01.026-.013.033a25.476 25.476 0 00-1.41 5.112 25.88 25.88 0 00-.012 8.331z"/><path class="a" d="M136.516 26.061a.317.317 0 01-.261-.5.323.323 0 01.036-.044.316.316 0 01.542.221.3.3 0 01-.01.075.316.316 0 01-.307.248zm4.966-4.986a.319.319 0 01-.261-.136.316.316 0 01.474-.417l.008.009.015.017a.316.316 0 01-.237.526z"/><path class="a" d="M141.484 21.112a.321.321 0 11.214-.552l.008.009.015.017a.316.316 0 01-.236.526zm-4.967 4.952a.317.317 0 01-.261-.5.322.322 0 01.036-.044.316.316 0 01.542.221.3.3 0 01-.01.075.316.316 0 01-.307.248z"/><path class="a" d="M141.484 21.112a.321.321 0 11.214-.552l.008.009.015.017a.316.316 0 01-.236.526zm-4.967 4.952a.317.317 0 01-.261-.5.322.322 0 01.036-.044.316.316 0 01.542.221.3.3 0 01-.01.075.316.316 0 01-.307.248z"/><path class="a" d="M141.484 21.112a.321.321 0 11.214-.552l.008.009.015.017a.316.316 0 01-.236.526zm-4.967 4.952a.317.317 0 01-.261-.5.322.322 0 01.036-.044.316.316 0 01.542.221.3.3 0 01-.01.075.316.316 0 01-.307.248zm18.673-.003h-.038a.316.316 0 01-.238-.158l-.026-.046a.315.315 0 01-.033-.084 21.183 21.183 0 00-2.015-5.368c-.1-.191-.208-.38-.316-.567a23.85 23.85 0 00-.871-1.386l-.032-.046-.052-.074a.312.312 0 01-.019-.353 24.94 24.94 0 00.438-.936c.174-.4.337-.808.485-1.213a20.329 20.329 0 001.181-5.689c.024-.392.036-.755.038-1.111v-.159a20.621 20.621 0 00-.145-2.433 20.342 20.342 0 00-.872-3.939.313.313 0 01.154-.375.318.318 0 01.4.089 26.278 26.278 0 013.585 6.352.387.387 0 01.018.046c.2.5.389 1.042.562 1.589a26.217 26.217 0 01.868 3.592 26.489 26.489 0 01.35 3.671c.005.225.009.45.009.674a26.5 26.5 0 01-.348 4.283.317.317 0 01-.054.13 31.883 31.883 0 01-2.8 3.416.317.317 0 01-.229.095zm-3.006-7.949a24.05 24.05 0 01.889 1.41c.111.194.22.388.325.584a21.8 21.8 0 011.949 5.006 31.188 31.188 0 002.311-2.869 25.869 25.869 0 00.328-4.111c0-.22 0-.439-.009-.659a25.886 25.886 0 00-.341-3.583 25.591 25.591 0 00-.847-3.506 24.817 24.817 0 00-.551-1.559l-.009-.021a25.562 25.562 0 00-2.459-4.743 21.125 21.125 0 01.553 4.805v.17c0 .359-.014.734-.038 1.138a20.952 20.952 0 01-1.218 5.865c-.152.417-.32.837-.5 1.25a17.25 17.25 0 01-.219.48c-.054.114-.108.229-.164.343zm4.078-9.247zm0 0z"/><path class="a" d="M157.96 22.658a.316.316 0 01-.119-.023.313.313 0 01-.193-.341 25.812 25.812 0 00.34-4.177c0-.219 0-.439-.009-.658a25.834 25.834 0 00-.341-3.578 25.534 25.534 0 00-.847-3.5 24.755 24.755 0 00-.551-1.557l-.009-.021a25.611 25.611 0 00-3.506-6.21l-.007-.009-.012-.015a.311.311 0 01.012-.39.318.318 0 01.346-.094l.026.007a.336.336 0 01.1.046 31.631 31.631 0 018.712 9.156c.3.482.592.973.858 1.459a.313.313 0 01.027.234 31.095 31.095 0 01-4.566 9.54.317.317 0 01-.261.131zm-1.146-14.1a.372.372 0 01.018.046c.2.5.389 1.04.562 1.587a26.14 26.14 0 01.868 3.588 26.416 26.416 0 01.35 3.666c.005.225.009.449.009.673a26.528 26.528 0 01-.162 2.93 30.692 30.692 0 001.54-2.674 30.369 30.369 0 002.143-5.434c-.243-.438-.5-.88-.778-1.316a31 31 0 00-7.025-7.847 26.145 26.145 0 012.475 4.776zm-.551.3zm-14.779 12.254a.321.321 0 11.214-.552l.008.009.015.017a.316.316 0 01-.236.526zm-4.967 4.952a.317.317 0 01-.261-.5.322.322 0 01.036-.044.316.316 0 01.542.221.3.3 0 01-.01.075.316.316 0 01-.307.248z"/><path class="a" d="M141.481 21.255a.316.316 0 01-.223-.092l-.024-.026a.318.318 0 01-.023-.03 22.122 22.122 0 01-1.588-2.667c0-.008-.008-.016-.011-.025s-.009-.018-.014-.028c-.051-.1-.1-.206-.151-.31l-.035-.072a3.806 3.806 0 01-.06-.131 21.062 21.062 0 01-1.969-8.789v-.168a21.594 21.594 0 01.149-2.528c.06-.52.143-1.05.246-1.574a21.459 21.459 0 01.646-2.493.322.322 0 01.052-.1l.021-.027a.319.319 0 01.178-.129c.161-.045.324-.091.485-.132a25.352 25.352 0 012.01-.446 26.34 26.34 0 0111.379.453c.166.044.33.089.5.136a.316.316 0 01.167.115.368.368 0 01.035.049.309.309 0 01.029.064 21.256 21.256 0 01.9 4.09 21.539 21.539 0 01.149 2.526v.172c0 .362-.014.74-.038 1.147a21.246 21.246 0 01-1.218 5.909c-.152.42-.321.844-.5 1.259-.071.162-.143.324-.219.483s-.151.322-.23.482l-.02.038-.008.016-.008.017a21.582 21.582 0 01-1.587 2.667l-.011.015a.326.326 0 01-.257.133 8.021 8.021 0 01-4.373-1.3 8.026 8.026 0 01-4.369 1.3zm-.238-.109zm5.166-1.585a7.387 7.387 0 003.651 1.059 20.966 20.966 0 001.451-2.456c.006-.015.014-.03.022-.046l.013-.023a22.53 22.53 0 00.923-2.166 20.616 20.616 0 001.181-5.732c.024-.395.036-.761.037-1.12v-.16a20.922 20.922 0 00-.145-2.451 20.645 20.645 0 00-.826-3.827l-.333-.09a25.7 25.7 0 00-11.107-.435 24.583 24.583 0 00-2.294.525 20.885 20.885 0 00-.588 2.3c-.1.508-.18 1.022-.238 1.526a20.945 20.945 0 00-.145 2.454v.155a20.455 20.455 0 001.914 8.542c.019.043.036.081.054.117l.035.072c.048.1.1.2.146.3l.028.06a22.164 22.164 0 001.452 2.453 7.394 7.394 0 003.65-1.059 8.04 8.04 0 01-1.844-2.019 7.948 7.948 0 01-.806-1.651.316.316 0 01.171-.394 7.569 7.569 0 016.073 0 .317.317 0 01.171.393l-.1.277a8.016 8.016 0 01-2.544 3.396zm-3.064-3.6a7.321 7.321 0 00.637 1.239 7.42 7.42 0 001.868 1.989 7.388 7.388 0 002.506-3.228 6.946 6.946 0 00-5.012 0z"/><path class="a" d="M145.852 19.771a.314.314 0 01-.18-.056 8.057 8.057 0 01-2.222-2.3 7.948 7.948 0 01-.806-1.651.316.316 0 01.171-.394 7.569 7.569 0 016.073 0 .317.317 0 01.171.393l-.1.277a8.025 8.025 0 01-2.925 3.671.316.316 0 01-.182.06zm-2.506-3.933a7.323 7.323 0 00.637 1.239 7.42 7.42 0 001.868 1.989 7.388 7.388 0 002.506-3.228 6.946 6.946 0 00-5.012 0zm-9.586 6.835a.317.317 0 01-.259-.133 30.94 30.94 0 01-4.58-9.559.312.312 0 01.027-.235 31.221 31.221 0 012.816-4.242 31.887 31.887 0 014.415-4.573 31.877 31.877 0 012.338-1.8.318.318 0 01.105-.048h.014a.4.4 0 01.047-.014.317.317 0 01.334.125.312.312 0 010 .354 25.568 25.568 0 00-1.472 2.131 25.485 25.485 0 00-2.053 4.089l-.006.014c0 .008-.01.025-.013.033a25.419 25.419 0 00-1.407 5.1 25.819 25.819 0 000 8.392.313.313 0 01-.192.341.322.322 0 01-.114.025zm-4.194-9.737a30.256 30.256 0 003.7 8.127 26.43 26.43 0 01.187-7.247 26.019 26.019 0 011.438-5.22c.008-.024.018-.046.027-.068a26.082 26.082 0 012.1-4.178q.185-.3.379-.595-.405.321-.8.654a31.218 31.218 0 00-4.328 4.483 30.551 30.551 0 00-2.703 4.044zm9.316-10.278zm2.602 18.454a.321.321 0 11.214-.552l.008.009.015.017a.316.316 0 01-.236.526z"/><path class="a" d="M145.852 23.15a5.927 5.927 0 01-4.615-2.19.317.317 0 01.244-.516 7.393 7.393 0 004.191-1.305.317.317 0 01.359 0 7.39 7.39 0 004.193 1.305.316.316 0 01.244.516 5.934 5.934 0 01-4.616 2.19zm-3.677-2.105a5.33 5.33 0 007.356 0 8.008 8.008 0 01-3.678-1.266 8.007 8.007 0 01-3.677 1.266zm-5.658 5.019a.317.317 0 01-.261-.5.322.322 0 01.036-.044.316.316 0 01.542.221.3.3 0 01-.01.075.316.316 0 01-.307.248zm37.661-3.935h-.043a.347.347 0 01-.31-.343v-.084a.353.353 0 01.644-.167.457.457 0 01.05.1.357.357 0 01.016.144.574.574 0 01-.016.084.361.361 0 01-.341.266zm12.657-14.144a.351.351 0 01-.211-.07 6.822 6.822 0 00-.281-.2 10.356 10.356 0 00-1.272-.754 9.563 9.563 0 00-.857-.378 10.221 10.221 0 00-1.7-.5.352.352 0 01-.23-.531 14.4 14.4 0 016.24-5.508.353.353 0 01.445.133l.024.042a.339.339 0 01.051.184.353.353 0 01-.074.217 8.99 8.99 0 00-1.767 4 8.157 8.157 0 00-.089.675 8.825 8.825 0 00-.041.852 9.015 9.015 0 00.07 1.128c.012.1.026.2.043.3a.352.352 0 01-.347.412zm-3.686-2.482a10.88 10.88 0 011.32.422c.3.116.614.253.917.4a11.059 11.059 0 011.008.571 9.919 9.919 0 01.015-1.675c.022-.249.055-.5.1-.73a9.675 9.675 0 011.173-3.226 13.691 13.691 0 00-4.533 4.241zm-9.563 2.87a.353.353 0 01-.34-.444 9.006 9.006 0 00.307-2.34c0-.138 0-.277-.009-.415a9.459 9.459 0 00-.1-1.02 8.892 8.892 0 00-1.406-3.571.353.353 0 01.441-.516 14.418 14.418 0 016.076 5.307l.011.019c.034.053.068.106.1.159a.352.352 0 01-.235.526 10.309 10.309 0 00-4.615 2.212.352.352 0 01-.23.083zm-.344-7.115a9.6 9.6 0 01.894 2.786 10.148 10.148 0 01.112 1.1q.009.223.009.446a9.806 9.806 0 01-.126 1.57 11.014 11.014 0 013.658-1.661 13.711 13.711 0 00-4.547-4.24z"/><path class="a" d="M190.729 13.546a.353.353 0 01-.338-.252 10.272 10.272 0 00-1.457-3.007 10.4 10.4 0 00-2.309-2.366.353.353 0 01-.138-.223 6.316 6.316 0 01-.048-.336 9.74 9.74 0 01-.075-1.212 9.49 9.49 0 01.144-1.648 9.691 9.691 0 011.906-4.311.353.353 0 01.588.048c.251.461.486.936.7 1.411a19.578 19.578 0 01.986 2.738c.155.562.284 1.118.382 1.655a19.919 19.919 0 01.012 7.217.353.353 0 01-.328.288zm-3.568-6.106a11.1 11.1 0 013.42 4.329 19.35 19.35 0 00.113-2.091 19.141 19.141 0 00-.324-3.51c-.1-.518-.219-1.054-.369-1.6a18.886 18.886 0 00-.95-2.639c-.129-.29-.267-.58-.412-.866a8.983 8.983 0 00-1.441 3.551 8.157 8.157 0 00-.089.675 8.825 8.825 0 00-.041.852 9.027 9.027 0 00.07 1.128l.023.171z"/><path class="a" d="M180.461 23.769a.352.352 0 01-.32-.205 21.047 21.047 0 00-1.689-3l-.013-.021c-.051-.076-.1-.15-.155-.224l-.03-.044a19.487 19.487 0 00-.57-.773 21.429 21.429 0 00-1.955-2.193c-.246-.24-.5-.473-.747-.692a20.971 20.971 0 00-3.356-2.421c-.519-.3-1.054-.58-1.59-.832a.353.353 0 01-.2-.268v.009a.355.355 0 010-.186l.012-.039.006-.019.041-.133a11.069 11.069 0 018.392-7.521c.116-.025.241-.047.376-.068a11.206 11.206 0 013.969.07h.014a10.925 10.925 0 011.82.535c.3.116.614.253.917.4a11.094 11.094 0 011.356.8c.1.07.2.142.3.218a11.1 11.1 0 012.464 2.525 10.976 10.976 0 011.557 3.214.353.353 0 01.007.173v.014l-.005.026a.352.352 0 01-.2.266c-.151.071-.3.144-.451.22l-.022.01c-.086.043-.171.086-.256.131a21.013 21.013 0 00-7.085 6c-.086.112-.165.222-.245.332l-.131.183-.086.122-.035.05-.012.019a20.721 20.721 0 00-1.763 3.1.352.352 0 01-.32.206zm-1.412-3.58a21.822 21.822 0 011.412 2.414 21.532 21.532 0 011.49-2.521l.014-.022.047-.067.092-.131.133-.186c.083-.116.167-.232.255-.345a21.714 21.714 0 017.32-6.2q.134-.071.274-.14l.021-.01.211-.1a10.275 10.275 0 00-1.383-2.769 10.4 10.4 0 00-2.309-2.366 6.337 6.337 0 00-.282-.2 10.361 10.361 0 00-1.272-.754 9.563 9.563 0 00-.857-.378 10.208 10.208 0 00-1.692-.5h-.014a10.482 10.482 0 00-3.732-.067c-.118.018-.23.037-.343.062a10.387 10.387 0 00-7.834 6.954c.466.226.93.473 1.381.734a21.655 21.655 0 013.469 2.5c.258.227.519.468.773.717a22.146 22.146 0 012.02 2.266c.226.292.419.554.591.8l.03.043.174.252zm-9.209-7.082z"/><path class="a" d="M178.359 6.047a.353.353 0 01-.3-.172 3.32 3.32 0 00-.1-.155.352.352 0 01.366-.537c.159.032.317.067.475.1a.352.352 0 01-.028.692 5.43 5.43 0 00-.338.061.346.346 0 01-.075.011zm2.097 21.086a.359.359 0 01-.162-.039 19.464 19.464 0 01-2.654-1.632 20.055 20.055 0 01-3.725-3.529.3.3 0 01-.021-.028 19.7 19.7 0 01-3.678-7.154 20.034 20.034 0 01-.376-1.636.353.353 0 01.5-.384c.555.26 1.108.549 1.644.86a21.658 21.658 0 013.469 2.5c.258.227.519.468.773.717a22.136 22.136 0 012.02 2.266c.226.292.418.554.591.8l.03.043.174.252.013.021a21.822 21.822 0 011.412 2.414 21.532 21.532 0 011.49-2.521.237.237 0 01.014-.022l.047-.067.092-.131.133-.186c.083-.116.167-.232.255-.345a21.714 21.714 0 017.32-6.2q.134-.071.274-.14l.021-.01c.153-.077.306-.151.461-.224a.352.352 0 01.5.382q-.047.256-.1.508a7.456 7.456 0 01-.038.177.476.476 0 01-.012.052 19.771 19.771 0 01-3.915 8.052 19.5 19.5 0 01-1.529 1.676c-.024.026-.058.06-.094.092a19.836 19.836 0 01-2 1.693 19.488 19.488 0 01-1.693 1.12c-.325.194-.675.386-1.066.588a.353.353 0 01-.17.035zm-5.982-5.633a19.363 19.363 0 003.581 3.393c.487.356 1 .7 1.536 1.01.275.163.565.324.864.48.314-.165.6-.324.869-.484a18.811 18.811 0 001.633-1.08 19.192 19.192 0 001.937-1.642c.031-.029.052-.049.072-.071a19.011 19.011 0 005.26-9.4l-.088.046a21.013 21.013 0 00-7.085 6c-.086.112-.165.222-.245.332l-.131.183-.086.122-.035.05-.012.019a20.726 20.726 0 00-1.763 3.1.363.363 0 01-.32.206.352.352 0 01-.32-.205 21.077 21.077 0 00-1.689-3l-.013-.021c-.051-.076-.1-.15-.155-.224l-.03-.044a19.487 19.487 0 00-.57-.773 21.43 21.43 0 00-1.955-2.193c-.246-.24-.5-.473-.747-.692a20.974 20.974 0 00-3.356-2.421c-.312-.181-.63-.354-.951-.518.067.3.141.593.22.881a18.985 18.985 0 003.559 6.913l.019.026z"/><path class="a" d="M170.158 13.43a.353.353 0 01-.347-.291 20.091 20.091 0 01-.3-3.461 19.623 19.623 0 011.738-8.112c.212-.47.444-.935.692-1.384a.353.353 0 01.443-.156c.036.015.072.032.108.05a.351.351 0 01.128.116 9.592 9.592 0 011.517 3.853 10.163 10.163 0 01.112 1.1q.01.223.009.446a9.688 9.688 0 01-.331 2.523.35.35 0 01-.114.179 10.339 10.339 0 00-3.242 4.834.351.351 0 01-.114.168c-.03.024-.061.049-.093.072a.353.353 0 01-.206.063zM172.3 1.007c-.143.279-.28.564-.409.849a18.926 18.926 0 00-1.675 7.822 19.362 19.362 0 00.113 2.09 11.049 11.049 0 012.944-3.944 9 9 0 00.279-2.234c0-.138 0-.277-.009-.415a9.474 9.474 0 00-.1-1.02 8.891 8.891 0 00-1.143-3.149zm38.387 20.068a.321.321 0 11.214-.552l.008.009.015.017a.316.316 0 01-.236.526z"/><path class="a" d="M210.687 21.075a.321.321 0 11.214-.552l.008.009.015.017a.316.316 0 01-.236.526zm-4.966 4.989a.317.317 0 01-.26-.5.3.3 0 01.036-.044.317.317 0 11.224.542z"/><path class="a" d="M210.687 21.075a.321.321 0 11.214-.552l.008.009.015.017a.316.316 0 01-.236.526zm-4.966 4.989a.317.317 0 01-.26-.5.3.3 0 01.036-.044.317.317 0 11.224.542z"/><path class="a" d="M205.721 26.061a.317.317 0 01-.26-.5.3.3 0 01.036-.044.316.316 0 01.542.221.312.312 0 01-.009.075.316.316 0 01-.309.248zm4.966-4.986a.32.32 0 01-.262-.136.316.316 0 01.474-.417l.008.009.015.017a.316.316 0 01-.236.526z"/><path class="a" d="M205.719 26.059h-.007a.318.318 0 01-.228-.1l-.093-.1a31.207 31.207 0 01-2.686-3.291.314.314 0 01-.054-.13 26.493 26.493 0 010-8.6 26.073 26.073 0 011.438-5.227.7.7 0 01.027-.068 26.123 26.123 0 012.1-4.183c.448-.726.939-1.44 1.461-2.123a.318.318 0 01.4-.089.313.313 0 01.155.375 20.631 20.631 0 00-.627 2.4c-.1.5-.18 1.014-.238 1.514a20.7 20.7 0 00-.145 2.436v.154a20.179 20.179 0 001.913 8.479c.019.043.036.08.054.116l.035.072c.048.1.1.2.146.3a.313.313 0 01-.023.321c-.192.273-.386.568-.578.876a20.438 20.438 0 00-1.029 1.834 21.167 21.167 0 00-1.707 4.8.332.332 0 01-.086.157.317.317 0 01-.228.077zm-2.455-3.8a30.858 30.858 0 002.287 2.837 21.814 21.814 0 011.62-4.363 20.448 20.448 0 011.06-1.888c.162-.26.326-.511.49-.75l-.068-.14-.034-.071a3.763 3.763 0 01-.06-.13 20.778 20.778 0 01-1.969-8.724v-.166a21.276 21.276 0 01.149-2.509c.06-.516.143-1.042.246-1.562q.071-.358.154-.714-.2.3-.381.6a25.569 25.569 0 00-2.053 4.094l-.006.014c0 .008-.01.026-.013.033a25.432 25.432 0 00-1.407 5.11 25.89 25.89 0 00-.012 8.331z"/><path class="a" d="M205.721 26.061a.317.317 0 01-.26-.5.3.3 0 01.036-.044.317.317 0 11.224.542zm4.966-4.986a.32.32 0 01-.262-.136.316.316 0 01.474-.417l.008.009.015.017a.316.316 0 01-.236.526z"/><path class="a" d="M210.687 21.112a.321.321 0 11.214-.552l.008.009.015.017a.316.316 0 01-.236.526zm-4.966 4.952a.317.317 0 01-.26-.5.3.3 0 01.036-.044.317.317 0 11.224.542z"/><path class="a" d="M210.687 21.112a.321.321 0 11.214-.552l.008.009.015.017a.316.316 0 01-.236.526zm-4.966 4.952a.317.317 0 01-.26-.5.3.3 0 01.036-.044.317.317 0 11.224.542z"/><path class="a" d="M210.687 21.112a.321.321 0 11.214-.552l.008.009.015.017a.316.316 0 01-.236.526zm-4.966 4.952a.317.317 0 01-.26-.5.3.3 0 01.036-.044.317.317 0 11.224.542zm18.673-.003h-.038a.316.316 0 01-.238-.158l-.026-.046a.308.308 0 01-.032-.084 21.186 21.186 0 00-2.018-5.367q-.154-.286-.316-.567a24.064 24.064 0 00-.87-1.386l-.032-.046-.052-.074a.312.312 0 01-.019-.353 24.94 24.94 0 00.438-.936c.174-.4.337-.808.485-1.213a20.33 20.33 0 001.181-5.689c.024-.392.036-.755.037-1.111v-.159a20.467 20.467 0 00-1.016-6.372.313.313 0 01.154-.375.318.318 0 01.4.089 26.277 26.277 0 013.585 6.352.432.432 0 01.018.046c.2.5.388 1.042.562 1.589a26.207 26.207 0 01.868 3.592 26.5 26.5 0 01.35 3.671c.005.225.009.45.009.674a26.507 26.507 0 01-.348 4.283.316.316 0 01-.053.13 31.914 31.914 0 01-2.8 3.416.317.317 0 01-.229.094zm-3.006-7.949a24.05 24.05 0 01.889 1.41c.112.194.22.388.325.584a21.809 21.809 0 011.949 5.006 31.249 31.249 0 002.311-2.869 25.9 25.9 0 00.328-4.111c0-.22 0-.439-.009-.659a25.427 25.427 0 00-1.188-7.089 24.817 24.817 0 00-.551-1.559l-.009-.021a25.575 25.575 0 00-2.459-4.743 21.125 21.125 0 01.553 4.805v.17c0 .359-.014.734-.038 1.138a20.967 20.967 0 01-1.218 5.865c-.152.417-.32.837-.5 1.25a17.25 17.25 0 01-.219.48c-.053.114-.11.229-.164.343zm4.078-9.247zm0 0z"/><path class="a" d="M227.164 22.658a.316.316 0 01-.312-.364 25.812 25.812 0 00.34-4.177c0-.219 0-.439-.008-.658a25.362 25.362 0 00-1.188-7.08 24.755 24.755 0 00-.551-1.557l-.009-.021a25.609 25.609 0 00-3.506-6.21l-.007-.009-.013-.024a.312.312 0 01.011-.39.319.319 0 01.347-.094l.026.007a.336.336 0 01.1.046 31.641 31.641 0 018.712 9.156c.3.482.592.973.858 1.459a.312.312 0 01.027.234 31.074 31.074 0 01-4.566 9.54.317.317 0 01-.261.142zm-1.146-14.1a.435.435 0 01.018.046c.2.5.388 1.04.562 1.587a26.139 26.139 0 01.867 3.588 26.436 26.436 0 01.35 3.666c.005.225.009.449.009.673a26.528 26.528 0 01-.163 2.93 30.438 30.438 0 003.683-8.107c-.243-.438-.5-.88-.778-1.316a31.011 31.011 0 00-7.025-7.847 26.141 26.141 0 012.477 4.775zm-.551.3zm-14.78 12.254a.321.321 0 11.214-.552l.008.009.015.017a.316.316 0 01-.236.526zm-4.966 4.952a.317.317 0 01-.26-.5.3.3 0 01.036-.044.317.317 0 11.224.542z"/><path class="a" d="M210.687 21.255a.316.316 0 01-.223-.092l-.024-.026a.372.372 0 01-.023-.03 22.122 22.122 0 01-1.588-2.667l-.011-.025c0-.009-.009-.018-.013-.028-.051-.1-.1-.206-.151-.31l-.034-.072a3.806 3.806 0 01-.06-.131 21.06 21.06 0 01-1.969-8.789v-.168a21.594 21.594 0 01.149-2.528c.06-.52.143-1.05.246-1.574a21.564 21.564 0 01.646-2.493.316.316 0 01.052-.1l.021-.027a.317.317 0 01.177-.129c.161-.045.324-.091.485-.132a25.352 25.352 0 012.01-.446 26.34 26.34 0 0111.376.453l.5.136a.317.317 0 01.168.115.342.342 0 01.035.049.325.325 0 01.03.064 21.274 21.274 0 01.9 4.09 21.532 21.532 0 01.149 2.526v.172c0 .362-.014.74-.038 1.147a21.255 21.255 0 01-1.218 5.909c-.152.42-.32.844-.5 1.259-.071.162-.143.324-.219.483s-.151.322-.23.482l-.02.038-.008.016-.008.017a21.582 21.582 0 01-1.587 2.667l-.011.015a.326.326 0 01-.257.133 8.019 8.019 0 01-4.373-1.3 8.027 8.027 0 01-4.369 1.3zm-.238-.109zm5.167-1.585a7.388 7.388 0 003.651 1.059 20.655 20.655 0 001.451-2.456l.022-.046.012-.023c.079-.161.154-.319.227-.477s.144-.311.211-.467c.174-.4.337-.814.485-1.222a20.616 20.616 0 001.181-5.732c.024-.395.036-.761.038-1.12v-.16a20.85 20.85 0 00-.145-2.451 20.618 20.618 0 00-.826-3.827l-.333-.09a25.7 25.7 0 00-11.107-.435 24.68 24.68 0 00-2.294.525 20.933 20.933 0 00-.588 2.3c-.1.508-.18 1.022-.238 1.526a21 21 0 00-.145 2.454v.155a20.459 20.459 0 001.913 8.542c.019.043.036.081.054.117l.035.072c.048.1.1.2.146.3l.029.06a22.164 22.164 0 001.452 2.453 7.4 7.4 0 003.65-1.059 8.033 8.033 0 01-2.65-3.67.317.317 0 01.171-.394 7.568 7.568 0 016.073 0 .316.316 0 01.171.393c-.032.093-.067.185-.1.277a8.015 8.015 0 01-2.546 3.396zm-3.064-3.6a7.414 7.414 0 002.506 3.228 7.39 7.39 0 002.506-3.228 6.946 6.946 0 00-5.012 0z"/><path class="a" d="M215.056 19.771a.315.315 0 01-.18-.056 8.061 8.061 0 01-2.222-2.3 7.978 7.978 0 01-.806-1.651.317.317 0 01.171-.394 7.568 7.568 0 016.073 0 .316.316 0 01.171.393c-.032.093-.067.185-.1.277a8.027 8.027 0 01-2.925 3.671.316.316 0 01-.182.06zm-2.506-3.933a7.416 7.416 0 002.506 3.228 7.389 7.389 0 002.506-3.228 6.946 6.946 0 00-5.012 0zm-9.585 6.835a.317.317 0 01-.259-.133 30.938 30.938 0 01-4.58-9.559.311.311 0 01.027-.235 31.2 31.2 0 012.817-4.242 31.857 31.857 0 014.415-4.573 32.092 32.092 0 012.338-1.8.316.316 0 01.105-.048h.014a.4.4 0 01.046-.014.318.318 0 01.334.125.311.311 0 010 .354 25.568 25.568 0 00-1.471 2.131 25.519 25.519 0 00-2.053 4.089l-.006.014c0 .008-.01.025-.013.033a25.385 25.385 0 00-1.407 5.1 25.819 25.819 0 000 8.392.313.313 0 01-.193.341.321.321 0 01-.114.025zm-4.2-9.737a30.258 30.258 0 003.7 8.127 26.434 26.434 0 01.187-7.247 26.026 26.026 0 011.438-5.22.681.681 0 01.027-.068 26.079 26.079 0 012.1-4.178q.185-.3.379-.595-.4.321-.8.654a31.251 31.251 0 00-4.328 4.483 30.575 30.575 0 00-2.703 4.044zm9.316-10.278zm2.606 18.454a.321.321 0 11.214-.552l.008.009.015.017a.316.316 0 01-.236.526z"/><path class="a" d="M215.057 23.15a5.926 5.926 0 01-4.615-2.19.316.316 0 01.244-.516 7.4 7.4 0 004.191-1.305.316.316 0 01.359 0 7.391 7.391 0 004.193 1.305.316.316 0 01.244.516 5.934 5.934 0 01-4.616 2.19zm-3.677-2.105a5.329 5.329 0 007.355 0 8.009 8.009 0 01-3.678-1.266 8.008 8.008 0 01-3.677 1.266zm-5.659 5.019a.317.317 0 01-.26-.5.3.3 0 01.036-.044.317.317 0 11.224.542z"/><path d="M7.485 15.007h9.133v2.444H5.942l-3.012 4.77H0l11.553-17.48h4.228L27.473 22.22h-2.929L14.213 6.244h-1.194zm36.622.009h9.083v2.459H42.668l-3.377 4.709h-3.009l11.7-17.441h2.666zM40.72 4.772l-8.628 13.07-8.544-13.078-3.135.007 11.27 16.916h.913l11.27-16.916zm22.121 17.386h2.931L54.209 4.783h-2.931zm4.95 0h2.931L59.162 4.783h-2.931zm4.955 0h2.931L64.114 4.783h-2.93zm4.611-17.371c1.155 0 2.269.02 3.411.02l10.538 12.8-.025-12.875h2.274l.031 17.449h-2.274v-.039h-.068L80.487 8.902h-.856v13.221h-2.274zm18.164.026h16.68v2.6h-7.175v14.786h-2.331V7.413H95.52z" fill-rule="evenodd" fill="#222"/><path class="a" d="M113.71 4.862h2.345v17.412h-2.345z"/></svg>